# xmcd
#
# Track frame offsets:
# 150
# 20992
# 59420
# 80172
# 109584
# 133491
# 171608
# 190413
# 232199
# 265245
# 278670
# 302894
# 320823
#
# Disc length: 4436 seconds
#
#
# Revision: 2
# Processed by: cddbd v1.5.2PL0 Copyright (c) Steve Scherf et al.
# Submitted via: FreeRIP 2.945 
#
DISCID=d411520d
DTITLE=PAULINHO MIXARIA - A FETOCÓPIA DA MALEZA
DYEAR=2003
DGENRE=gauchas
TTITLE0=Mintiu Pro Tiu
TTITLE1=Macho e Meio
TTITLE2=O Nome da Cria
TTITLE3=Causos de Sogra
TTITLE4=É Mentira Desses Loco
TTITLE5=Causos dos Véios
TTITLE6=O Buneco das Lindonas
TTITLE7=As Proezas do João Mentira
TTITLE8=A Fetocópia da Maleza
TTITLE9=Causos de Pescaria
TTITLE10=Não Custa Comprar o Meu
TTITLE11=Embaraiando os Assunto
TTITLE12=Coração de Palhaço
EXTD=musicas gauchas, com toques de humorismo YEAR: 2003
EXTT0=
EXTT1=
EXTT2=
EXTT3=
EXTT4=
EXTT5=
EXTT6=
EXTT7=
EXTT8=
EXTT9=
EXTT10=
EXTT11=
EXTT12=
PLAYORDER=
